<svg width="910" height="628" viewBox="0 0 910 628" fill="none" xmlns="http://www.w3.org/2000/svg">
<path d="M357 100L357.459 311.246L357.918 522.493" stroke="black" stroke-width="12"/>
<path d="M180 0V212" stroke="black" stroke-width="12"/>
<path d="M180 403V621" stroke="black" stroke-width="12"/>
<path d="M0 6H180" stroke="black" stroke-width="12"/>
<path d="M0 206H180" stroke="black" stroke-width="12"/>
<path d="M0 206H180" stroke="black" stroke-width="12"/>
<path d="M0 409H180" stroke="black" stroke-width="12"/>
<path d="M180 104L353 106" stroke="black" stroke-width="12"/>
<path d="M180 515L353 517" stroke="black" stroke-width="12"/>
<path d="M0 615H90H180" stroke="black" stroke-width="12"/>
<path d="M363 251H525" stroke="black" stroke-width="12"/>
<path d="M551.948 100L551.948 313.753L551.902 527.936" stroke="black" stroke-width="12"/>
<path d="M385 333H547" stroke="black" stroke-width="12"/>
<path d="M557 106L730 108" stroke="black" stroke-width="12"/>
<path d="M557 522L730 524" stroke="black" stroke-width="12"/>
<path d="M730 6H910" stroke="black" stroke-width="12"/>
<path d="M729 212H909" stroke="black" stroke-width="12"/>
<path d="M730 409H910" stroke="black" stroke-width="12"/>
<path d="M729 621H909" stroke="black" stroke-width="12"/>
<path d="M729 403L730 627" stroke="black" stroke-width="12"/>
<path d="M730 0V218" stroke="black" stroke-width="12"/>
</svg>
