<svg width="500" height="500" viewBox="0 0 500 500" fill="none" xmlns="http://www.w3.org/2000/svg">
<g clip-path="url(#clip0_4_30)">
<path d="M55.2081 49.1828V450.816C55.2081 477.705 77.0838 499.581 103.972 499.581H396.027C422.915 499.581 444.791 477.705 444.791 450.816V49.1828C444.791 22.295 422.915 0.419373 396.027 0.419373H103.972C77.0838 0.419373 55.2081 22.295 55.2081 49.1828ZM408.861 49.1828V450.816C408.861 457.904 403.116 463.65 396.027 463.65H103.972C96.8844 463.65 91.1391 457.904 91.1391 450.816V49.1828C91.1391 42.0956 96.8844 36.3503 103.972 36.3503H396.027C403.116 36.3503 408.861 42.0956 408.861 49.1828Z" fill="black"/>
<path d="M396.027 500H103.972C76.8523 500 54.7888 477.937 54.7888 450.816V49.1828C54.7888 22.0635 76.8523 0 103.972 0H396.027C423.147 0 445.21 22.0635 445.21 49.1828V450.816C445.21 477.937 423.148 500 396.027 500ZM103.972 0.838725C77.3145 0.838725 55.6275 22.5256 55.6275 49.1828V450.816C55.6275 477.474 77.3145 499.161 103.972 499.161H396.027C422.684 499.161 444.372 477.474 444.372 450.816V49.1828C444.372 22.5256 422.685 0.838725 396.027 0.838725H103.972ZM396.027 464.069H103.972C96.6647 464.069 90.7198 458.124 90.7198 450.816V49.1828C90.7198 41.8759 96.6647 35.931 103.972 35.931H396.027C403.334 35.931 409.279 41.8759 409.279 49.1828V450.816C409.28 458.124 403.335 464.069 396.027 464.069ZM103.972 36.7697C97.1268 36.7697 91.5585 42.338 91.5585 49.1828V450.816C91.5585 457.661 97.1268 463.23 103.972 463.23H396.027C402.871 463.23 408.441 457.661 408.441 450.816V49.1828C408.441 42.338 402.871 36.7697 396.027 36.7697H103.972Z" fill="black"/>
<path d="M209.016 348.988C218.41 362.272 233.73 370.202 249.999 370.202C266.268 370.202 281.59 362.272 290.983 348.988L340.485 278.979C352.742 261.646 352.742 238.354 340.485 221.02L289.815 149.36C280.688 136.455 265.804 128.75 249.999 128.75C234.194 128.75 219.31 136.455 210.184 149.359L159.513 221.019C147.256 238.353 147.256 261.644 159.513 278.978L209.016 348.988ZM188.851 241.765L239.521 170.105C242.078 166.489 246.039 164.682 249.999 164.682C253.958 164.682 257.919 166.49 260.476 170.105L311.147 241.765C314.637 246.7 314.637 253.3 311.147 258.236L261.644 328.243C258.802 332.262 254.4 334.272 249.999 334.272C245.596 334.272 241.194 332.263 238.352 328.243L188.85 258.236C185.361 253.3 185.361 246.7 188.851 241.765Z" fill="black"/>
<path d="M250 370.622C233.594 370.622 218.146 362.625 208.674 349.231L159.171 279.222C146.813 261.742 146.814 238.255 159.171 220.778L209.843 149.118C219.047 136.102 234.059 128.331 250 128.331C265.941 128.331 280.954 136.102 290.158 149.118L340.828 220.778C353.187 238.256 353.187 261.743 340.828 279.221L291.326 349.23C281.854 362.625 266.406 370.622 250 370.622ZM250 129.169C234.33 129.169 219.575 136.808 210.528 149.602L159.857 221.261C147.703 238.449 147.703 261.548 159.857 278.737L209.359 348.746C218.674 361.919 233.867 369.783 250 369.783C266.134 369.783 281.328 361.919 290.642 348.746L340.144 278.737C352.298 261.549 352.298 238.451 340.144 221.262L289.473 149.602C280.426 136.808 265.669 129.169 250 129.169ZM249.999 334.691C245.169 334.691 240.8 332.429 238.01 328.486L188.508 258.478C184.923 253.406 184.924 246.593 188.508 241.523L239.179 169.864C241.696 166.304 245.64 164.263 249.999 164.263C254.358 164.263 258.3 166.304 260.818 169.864L311.489 241.523C315.075 246.593 315.075 253.407 311.489 258.478L261.987 328.486C259.197 332.429 254.828 334.691 249.999 334.691ZM249.999 165.101C245.916 165.101 242.221 167.014 239.864 170.348L189.193 242.007C185.813 246.788 185.812 253.213 189.192 257.993L238.694 328.001C241.325 331.72 245.444 333.853 249.999 333.853C254.552 333.853 258.672 331.72 261.302 328.001L310.805 257.993C314.186 253.213 314.186 246.788 310.805 242.007L260.134 170.348C257.776 167.013 254.082 165.101 249.999 165.101Z" fill="black"/>
<path d="M251.854 234.857V280.104M251.854 234.857V219.256C251.854 218.28 251.854 217.792 252.018 217.377C252.162 217.01 252.396 216.685 252.698 216.432C253.041 216.146 253.503 215.992 254.43 215.683L275.146 208.777C276.82 208.219 277.657 207.94 278.323 208.108C278.906 208.254 279.412 208.618 279.735 209.125C280.104 209.704 280.104 210.586 280.104 212.351V227.952C280.104 228.928 280.104 229.416 279.941 229.831C279.797 230.198 279.563 230.523 279.26 230.776C278.918 231.062 278.455 231.216 277.529 231.525L256.812 238.431C255.138 238.988 254.301 239.267 253.635 239.1C253.052 238.954 252.547 238.59 252.223 238.083C251.854 237.504 251.854 236.622 251.854 234.857ZM251.854 280.104C251.854 286.605 244.476 291.875 235.375 291.875C226.274 291.875 218.896 286.605 218.896 280.104C218.896 273.603 226.274 268.333 235.375 268.333C244.476 268.333 251.854 273.603 251.854 280.104Z" stroke="black" stroke-width="10" stroke-linecap="round" stroke-linejoin="round"/>
</g>
<defs>
<clipPath id="clip0_4_30">
<rect width="500" height="500" fill="white"/>
</clipPath>
</defs>
</svg>
