<svg width="90" height="90" viewBox="0 0 90 90" fill="none" xmlns="http://www.w3.org/2000/svg">
<g clip-path="url(#clip0_6_36)">
<path d="M44.9999 0C20.187 0 0.000116348 20.1871 0.000116348 45.0004C0.000116348 69.8133 20.187 90 44.9999 90C69.813 90 89.9999 69.8133 89.9999 45.0004C90.0001 20.1871 69.8132 0 44.9999 0ZM44.9999 86.2497C22.2551 86.2497 3.75041 67.7454 3.75041 45.0004C3.75041 22.2551 22.2551 3.75029 44.9999 3.75029C67.7453 3.75029 86.2495 22.255 86.2495 45.0004C86.2498 67.7454 67.7453 86.2497 44.9999 86.2497Z" fill="#226662"/>
<path d="M47.5309 15.1068C48.5629 15.1944 49.4701 14.4285 49.5573 13.3963C49.6445 12.3645 48.879 11.4571 47.847 11.3699C46.9025 11.2901 45.9446 11.2495 44.9996 11.2495C26.3899 11.2495 11.2496 26.39 11.2496 45.0004C11.2496 46.0361 12.0892 46.8754 13.1249 46.8754C14.1604 46.8754 15.0001 46.0359 15.0001 45.0004C15.0001 28.4579 28.4579 14.9998 44.9998 14.9998C45.8395 14.9998 46.691 15.0358 47.5309 15.1068Z" fill="#662D22"/>
<path d="M76.8751 43.1251C75.8394 43.1251 74.9999 43.9647 74.9999 45.0004C74.9999 61.5422 61.5419 75.0001 44.9997 75.0001C44.152 75.0001 43.3013 74.964 42.4709 74.8932C41.4376 74.8053 40.5308 75.5701 40.4429 76.602C40.3548 77.6338 41.1198 78.5419 42.1515 78.6299C43.0879 78.7097 44.0462 78.7505 44.9997 78.7505C63.6098 78.7505 78.7502 63.6103 78.7502 45.0005C78.7504 43.9648 77.9108 43.1251 76.8751 43.1251Z" fill="#662D22"/>
<path d="M52.6512 15.9924L52.7607 16.0212C52.9244 16.0655 53.0891 16.0866 53.2512 16.0866C54.0773 16.0866 54.8341 15.5361 55.06 14.6999C55.3301 13.7002 54.7388 12.6708 53.739 12.4005C53.6848 12.3859 53.6303 12.3715 53.5764 12.3576C52.573 12.1022 51.5521 12.7086 51.2965 13.7122C51.0411 14.7162 51.6477 15.7368 52.6512 15.9924Z" fill="#662D22"/>
<path d="M37.3685 74.0134L37.2127 73.9723C36.2099 73.7165 35.1882 74.3233 34.9328 75.3268C34.6776 76.3304 35.284 77.3511 36.2876 77.6067L36.4039 77.6375C36.5653 77.6804 36.7276 77.7011 36.8873 77.7011C37.7165 77.7011 38.475 77.1469 38.6982 76.3077C38.9649 75.3068 38.3694 74.2797 37.3685 74.0134Z" fill="#662D22"/>
<path d="M41.0752 60.5524L49.9496 55.4286C50.0022 55.3982 50.0528 55.3658 50.1012 55.3312L58.7452 50.3406C59.7082 49.8027 60.5083 49.0117 61.0603 48.0514C62.7398 45.128 61.7286 41.383 58.8085 39.7048L50.2132 34.7428C50.124 34.685 50.0354 34.63 49.9496 34.5813L41.3772 29.6318C40.3766 28.9723 39.2136 28.6239 38.0085 28.6239C34.627 28.6239 31.8758 31.375 31.8758 34.7569V55.2526C31.8758 55.3275 31.8802 55.4012 31.8888 55.4738C31.9245 56.4715 32.2065 57.4513 32.7101 58.3211C33.8012 60.2056 35.833 61.3763 38.0125 61.3763C39.0853 61.3763 40.1453 61.091 41.0752 60.5524ZM35.9555 56.442C35.7455 56.0793 35.6349 55.6689 35.6353 55.2547C35.6353 55.1927 35.6323 55.1308 35.6261 55.0696V34.7569C35.6261 33.4429 36.6947 32.3742 38.0085 32.3742C38.4861 32.3742 38.9454 32.5141 39.3365 32.7785C39.3731 32.8034 39.4107 32.8268 39.4494 32.8491L48.0836 37.8341C48.1236 37.857 48.1616 37.8821 48.1999 37.9072C48.2303 37.9273 48.2614 37.9466 48.2933 37.9651L56.9366 42.9548C58.0667 43.6043 58.458 45.0527 57.8085 46.1828C57.5939 46.5562 57.2831 46.8629 56.9101 47.07C56.9006 47.0751 56.8913 47.0804 56.8823 47.0858L48.0702 52.1733C48.0176 52.2037 47.967 52.236 47.9185 52.2708L39.1976 57.3059C38.8359 57.5155 38.4261 57.6262 38.0123 57.6262C37.1667 57.626 36.3785 57.1723 35.9555 56.442Z" fill="#662D22"/>
</g>
<defs>
<clipPath id="clip0_6_36">
<rect width="90" height="90" fill="white"/>
</clipPath>
</defs>
</svg>
