<svg width="391" height="511" viewBox="0 0 391 511" fill="none" xmlns="http://www.w3.org/2000/svg">
<path fill-rule="evenodd" clip-rule="evenodd" d="M317.814 25.278C338.628 17.5057 359.348 37.9314 359.348 66.2228V339.79C359.348 386.825 330.171 424.957 294.181 424.957C258.191 424.957 229.014 386.825 229.014 339.79C229.014 292.754 258.191 254.623 294.181 254.623C306.051 254.623 317.18 258.771 326.764 266.016V149.685L163.848 210.519V403.665C163.848 450.7 134.672 488.832 98.681 488.832C62.6904 488.832 33.5143 450.7 33.5143 403.665C33.5143 356.63 62.6904 318.498 98.681 318.498C110.551 318.498 121.679 322.646 131.264 329.891V127.056C131.264 108.044 140.908 91.3344 154.896 86.1113L317.814 25.278ZM306.675 70.8741C316.688 66.9488 326.764 76.7468 326.764 90.4078C326.764 99.4139 322.243 107.354 315.644 109.941L183.937 161.58C173.924 165.506 163.848 155.708 163.848 142.047C163.848 133.041 168.369 125.101 174.968 122.513L306.675 70.8741ZM261.87 339.79C261.87 363.111 276.337 382.018 294.181 382.018C312.027 382.018 326.492 363.111 326.492 339.79C326.492 316.467 312.027 297.562 294.181 297.562C276.337 297.562 261.87 316.467 261.87 339.79ZM66.3697 403.665C66.3697 426.986 80.8359 445.893 98.681 445.893C116.526 445.893 130.992 426.986 130.992 403.665C130.992 380.342 116.526 361.437 98.681 361.437C80.8359 361.437 66.3697 380.342 66.3697 403.665Z" fill="#0F0F0F"/>
</svg>
