<svg width="356" height="343" viewBox="0 0 356 343" fill="none" xmlns="http://www.w3.org/2000/svg">
<path fill-rule="evenodd" clip-rule="evenodd" d="M131.158 0C126.189 0 121.423 1.57124 117.909 4.36788L5.48783 93.8461C1.97412 96.6429 0 100.436 0 104.391V283.348C0 308.057 25.1664 328.087 56.2105 328.087H74.9474C85.2953 328.087 93.6842 321.41 93.6842 313.174C93.6842 304.937 85.2953 298.261 74.9474 298.261H56.2105C45.8625 298.261 37.4737 291.584 37.4737 283.348V119.304H131.158C141.506 119.304 149.895 112.627 149.895 104.391V29.8261H281.053C291.401 29.8261 299.789 36.503 299.789 44.7391V89.4783C299.789 97.7144 308.178 104.391 318.526 104.391C328.875 104.391 337.263 97.7144 337.263 89.4783V44.7391C337.263 20.0305 312.098 0 281.053 0H131.158ZM112.421 89.4783H63.9715L112.421 50.9163V89.4783ZM178 343C203.87 343 224.842 326.308 224.842 305.717V176.978L318.526 166.325V254.267C315.498 253.778 312.366 253.522 309.158 253.522C283.288 253.522 262.316 270.214 262.316 290.804C262.316 311.395 283.288 328.087 309.158 328.087C335.028 328.087 356 311.395 356 290.804V149.13C356 144.807 353.643 140.697 349.539 137.864C345.436 135.032 339.991 133.756 334.614 134.368L203.456 149.281C194.224 150.329 187.368 156.621 187.368 164.043V269.18C184.341 268.691 181.208 268.435 178 268.435C152.13 268.435 131.158 285.127 131.158 305.717C131.158 326.308 152.13 343 178 343Z" fill="black"/>
</svg>
